# xmcd
#
# Track frame offsets: 
#        150
#        10788
#        26585
#        42753
#        57838
#        70728
#        87023
#        98338
#        111375
#        120745
#
# Disc length: 1763 seconds
#
# Revision: 2
# Processed by: cddbd v1.5.2PL0 Copyright (c) Steve Scherf et al.
# Submitted via: ExactAudioCopy v0.99pb5
#
DISCID=7106e10a
DTITLE=George Strait - If You Ain't Lovin' You Ain't Livin'
DYEAR=1988
DGENRE=Country
TTITLE0=If You Ain't Lovin' (You Ain't Livin')
TTITLE1=Under These Conditions
TTITLE2=Baby Blue
TTITLE3=Don't Mind If I Do
TTITLE4=Bigger Man Than Me
TTITLE5=Famous Last Words Of A Fool
TTITLE6=It's Too Late Now
TTITLE7=Is It That Time Again
TTITLE8=Let's Get Down To It
TTITLE9=Back To Bein' Me
EXTD=YEAR: 1988
EXTT0=
EXTT1=
EXTT2=
EXTT3=
EXTT4=
EXTT5=
EXTT6=
EXTT7=
EXTT8=
EXTT9=
PLAYORDER=
